<mxfile host="app.diagrams.net" agent="Mozilla/5.0 (Windows NT 10.0; Win64; x64) AppleWebKit/537.36 (KHTML, like Gecko) Chrome/127.0.0.0 Safari/537.36" version="24.7.6">
  <diagram id="C5RBs43oDa-KdzZeNtuy" name="Page-1">
    <mxGraphModel dx="3058" dy="1340" grid="1" gridSize="10" guides="1" tooltips="1" connect="1" arrows="1" fold="1" page="1" pageScale="1" pageWidth="827" pageHeight="1169" math="0" shadow="0">
      <root>
        <mxCell id="WIyWlLk6GJQsqaUBKTNV-0" />
        <mxCell id="WIyWlLk6GJQsqaUBKTNV-1" parent="WIyWlLk6GJQsqaUBKTNV-0" />
        <mxCell id="8zvRW7DAS_xp6OmD4MuE-11" value="" style="edgeStyle=orthogonalEdgeStyle;rounded=0;orthogonalLoop=1;jettySize=auto;html=1;entryX=1;entryY=0.5;entryDx=0;entryDy=0;" edge="1" parent="WIyWlLk6GJQsqaUBKTNV-1" source="8zvRW7DAS_xp6OmD4MuE-4" target="8zvRW7DAS_xp6OmD4MuE-12">
          <mxGeometry relative="1" as="geometry">
            <mxPoint x="314" y="450" as="targetPoint" />
          </mxGeometry>
        </mxCell>
        <mxCell id="8zvRW7DAS_xp6OmD4MuE-21" value="y" style="edgeLabel;html=1;align=center;verticalAlign=middle;resizable=0;points=[];" vertex="1" connectable="0" parent="8zvRW7DAS_xp6OmD4MuE-11">
          <mxGeometry x="-0.2185" y="-2" relative="1" as="geometry">
            <mxPoint as="offset" />
          </mxGeometry>
        </mxCell>
        <mxCell id="8zvRW7DAS_xp6OmD4MuE-26" value="" style="edgeStyle=orthogonalEdgeStyle;rounded=0;orthogonalLoop=1;jettySize=auto;html=1;" edge="1" parent="WIyWlLk6GJQsqaUBKTNV-1" source="8zvRW7DAS_xp6OmD4MuE-4" target="8zvRW7DAS_xp6OmD4MuE-25">
          <mxGeometry relative="1" as="geometry" />
        </mxCell>
        <mxCell id="8zvRW7DAS_xp6OmD4MuE-4" value="判断是否为空" style="rhombus;whiteSpace=wrap;html=1;" vertex="1" parent="WIyWlLk6GJQsqaUBKTNV-1">
          <mxGeometry x="335" y="410" width="150" height="80" as="geometry" />
        </mxCell>
        <mxCell id="8zvRW7DAS_xp6OmD4MuE-12" value="结束" style="ellipse;whiteSpace=wrap;html=1;" vertex="1" parent="WIyWlLk6GJQsqaUBKTNV-1">
          <mxGeometry x="150" y="410" width="120" height="80" as="geometry" />
        </mxCell>
        <mxCell id="8zvRW7DAS_xp6OmD4MuE-18" value="" style="edgeStyle=orthogonalEdgeStyle;rounded=0;orthogonalLoop=1;jettySize=auto;html=1;" edge="1" parent="WIyWlLk6GJQsqaUBKTNV-1" source="8zvRW7DAS_xp6OmD4MuE-15" target="8zvRW7DAS_xp6OmD4MuE-16">
          <mxGeometry relative="1" as="geometry" />
        </mxCell>
        <mxCell id="8zvRW7DAS_xp6OmD4MuE-15" value="开始" style="ellipse;whiteSpace=wrap;html=1;" vertex="1" parent="WIyWlLk6GJQsqaUBKTNV-1">
          <mxGeometry x="350" y="40" width="120" height="80" as="geometry" />
        </mxCell>
        <mxCell id="8zvRW7DAS_xp6OmD4MuE-19" value="" style="edgeStyle=orthogonalEdgeStyle;rounded=0;orthogonalLoop=1;jettySize=auto;html=1;" edge="1" parent="WIyWlLk6GJQsqaUBKTNV-1" source="8zvRW7DAS_xp6OmD4MuE-16" target="8zvRW7DAS_xp6OmD4MuE-17">
          <mxGeometry relative="1" as="geometry" />
        </mxCell>
        <mxCell id="8zvRW7DAS_xp6OmD4MuE-16" value="&#xa;&lt;span style=&quot;color: rgb(0, 0, 0); font-family: Helvetica; font-size: 12px; font-style: normal; font-variant-ligatures: normal; font-variant-caps: normal; font-weight: 400; letter-spacing: normal; orphans: 2; text-align: center; text-indent: 0px; text-transform: none; widows: 2; word-spacing: 0px; -webkit-text-stroke-width: 0px; white-space: normal; background-color: rgb(251, 251, 251); text-decoration-thickness: initial; text-decoration-style: initial; text-decoration-color: initial; display: inline !important; float: none;&quot;&gt;查询隐患排查任务状态为已配置的数据&lt;/span&gt;&#xa;&#xa;" style="rounded=0;whiteSpace=wrap;html=1;" vertex="1" parent="WIyWlLk6GJQsqaUBKTNV-1">
          <mxGeometry x="350" y="180" width="120" height="60" as="geometry" />
        </mxCell>
        <mxCell id="8zvRW7DAS_xp6OmD4MuE-20" value="" style="edgeStyle=orthogonalEdgeStyle;rounded=0;orthogonalLoop=1;jettySize=auto;html=1;" edge="1" parent="WIyWlLk6GJQsqaUBKTNV-1" source="8zvRW7DAS_xp6OmD4MuE-17" target="8zvRW7DAS_xp6OmD4MuE-4">
          <mxGeometry relative="1" as="geometry" />
        </mxCell>
        <mxCell id="8zvRW7DAS_xp6OmD4MuE-17" value="拿取一个任务" style="rounded=0;whiteSpace=wrap;html=1;" vertex="1" parent="WIyWlLk6GJQsqaUBKTNV-1">
          <mxGeometry x="350" y="300" width="120" height="60" as="geometry" />
        </mxCell>
        <mxCell id="8zvRW7DAS_xp6OmD4MuE-27" style="edgeStyle=orthogonalEdgeStyle;rounded=0;orthogonalLoop=1;jettySize=auto;html=1;exitX=1;exitY=0.5;exitDx=0;exitDy=0;" edge="1" parent="WIyWlLk6GJQsqaUBKTNV-1" source="8zvRW7DAS_xp6OmD4MuE-25">
          <mxGeometry relative="1" as="geometry">
            <mxPoint x="410" y="380" as="targetPoint" />
            <Array as="points">
              <mxPoint x="525" y="590" />
              <mxPoint x="525" y="380" />
            </Array>
          </mxGeometry>
        </mxCell>
        <mxCell id="8zvRW7DAS_xp6OmD4MuE-29" value="y" style="edgeLabel;html=1;align=center;verticalAlign=middle;resizable=0;points=[];" vertex="1" connectable="0" parent="8zvRW7DAS_xp6OmD4MuE-27">
          <mxGeometry x="-0.3554" relative="1" as="geometry">
            <mxPoint as="offset" />
          </mxGeometry>
        </mxCell>
        <mxCell id="8zvRW7DAS_xp6OmD4MuE-31" value="" style="edgeStyle=orthogonalEdgeStyle;rounded=0;orthogonalLoop=1;jettySize=auto;html=1;" edge="1" parent="WIyWlLk6GJQsqaUBKTNV-1" source="8zvRW7DAS_xp6OmD4MuE-25" target="8zvRW7DAS_xp6OmD4MuE-30">
          <mxGeometry relative="1" as="geometry" />
        </mxCell>
        <mxCell id="8zvRW7DAS_xp6OmD4MuE-32" value="n" style="edgeLabel;html=1;align=center;verticalAlign=middle;resizable=0;points=[];" vertex="1" connectable="0" parent="8zvRW7DAS_xp6OmD4MuE-31">
          <mxGeometry x="-0.088" y="-1" relative="1" as="geometry">
            <mxPoint as="offset" />
          </mxGeometry>
        </mxCell>
        <mxCell id="8zvRW7DAS_xp6OmD4MuE-25" value="当前时间比初始排查时间大" style="rhombus;whiteSpace=wrap;html=1;" vertex="1" parent="WIyWlLk6GJQsqaUBKTNV-1">
          <mxGeometry x="315" y="550" width="190" height="80" as="geometry" />
        </mxCell>
        <mxCell id="8zvRW7DAS_xp6OmD4MuE-34" value="" style="edgeStyle=orthogonalEdgeStyle;rounded=0;orthogonalLoop=1;jettySize=auto;html=1;" edge="1" parent="WIyWlLk6GJQsqaUBKTNV-1" source="8zvRW7DAS_xp6OmD4MuE-30" target="8zvRW7DAS_xp6OmD4MuE-33">
          <mxGeometry relative="1" as="geometry" />
        </mxCell>
        <mxCell id="8zvRW7DAS_xp6OmD4MuE-30" value="根据工作时候和循环周期，去切时间段" style="rounded=0;whiteSpace=wrap;html=1;" vertex="1" parent="WIyWlLk6GJQsqaUBKTNV-1">
          <mxGeometry x="350" y="680" width="120" height="60" as="geometry" />
        </mxCell>
        <mxCell id="8zvRW7DAS_xp6OmD4MuE-35" style="edgeStyle=orthogonalEdgeStyle;rounded=0;orthogonalLoop=1;jettySize=auto;html=1;exitX=1;exitY=0.5;exitDx=0;exitDy=0;" edge="1" parent="WIyWlLk6GJQsqaUBKTNV-1" source="8zvRW7DAS_xp6OmD4MuE-33">
          <mxGeometry relative="1" as="geometry">
            <mxPoint x="410" y="380" as="targetPoint" />
            <Array as="points">
              <mxPoint x="630" y="830" />
              <mxPoint x="630" y="380" />
            </Array>
          </mxGeometry>
        </mxCell>
        <mxCell id="8zvRW7DAS_xp6OmD4MuE-36" value="y" style="edgeLabel;html=1;align=center;verticalAlign=middle;resizable=0;points=[];" vertex="1" connectable="0" parent="8zvRW7DAS_xp6OmD4MuE-35">
          <mxGeometry x="-0.2193" y="-1" relative="1" as="geometry">
            <mxPoint as="offset" />
          </mxGeometry>
        </mxCell>
        <mxCell id="8zvRW7DAS_xp6OmD4MuE-38" value="" style="edgeStyle=orthogonalEdgeStyle;rounded=0;orthogonalLoop=1;jettySize=auto;html=1;" edge="1" parent="WIyWlLk6GJQsqaUBKTNV-1" source="8zvRW7DAS_xp6OmD4MuE-33" target="8zvRW7DAS_xp6OmD4MuE-37">
          <mxGeometry relative="1" as="geometry" />
        </mxCell>
        <mxCell id="8zvRW7DAS_xp6OmD4MuE-39" value="n" style="edgeLabel;html=1;align=center;verticalAlign=middle;resizable=0;points=[];" vertex="1" connectable="0" parent="8zvRW7DAS_xp6OmD4MuE-38">
          <mxGeometry x="-0.088" y="3" relative="1" as="geometry">
            <mxPoint x="-3" as="offset" />
          </mxGeometry>
        </mxCell>
        <mxCell id="8zvRW7DAS_xp6OmD4MuE-33" value="当前时间所在的时间段任务是否生成" style="rhombus;whiteSpace=wrap;html=1;" vertex="1" parent="WIyWlLk6GJQsqaUBKTNV-1">
          <mxGeometry x="307" y="790" width="206" height="80" as="geometry" />
        </mxCell>
        <mxCell id="8zvRW7DAS_xp6OmD4MuE-44" value="" style="edgeStyle=orthogonalEdgeStyle;rounded=0;orthogonalLoop=1;jettySize=auto;html=1;" edge="1" parent="WIyWlLk6GJQsqaUBKTNV-1" source="8zvRW7DAS_xp6OmD4MuE-37" target="8zvRW7DAS_xp6OmD4MuE-43">
          <mxGeometry relative="1" as="geometry" />
        </mxCell>
        <mxCell id="8zvRW7DAS_xp6OmD4MuE-37" value="根据任务信息，查询任务分配的人员" style="rounded=0;whiteSpace=wrap;html=1;" vertex="1" parent="WIyWlLk6GJQsqaUBKTNV-1">
          <mxGeometry x="350" y="920" width="120" height="60" as="geometry" />
        </mxCell>
        <mxCell id="8zvRW7DAS_xp6OmD4MuE-64" value="" style="edgeStyle=orthogonalEdgeStyle;rounded=0;orthogonalLoop=1;jettySize=auto;html=1;" edge="1" parent="WIyWlLk6GJQsqaUBKTNV-1" source="8zvRW7DAS_xp6OmD4MuE-43" target="8zvRW7DAS_xp6OmD4MuE-63">
          <mxGeometry relative="1" as="geometry" />
        </mxCell>
        <mxCell id="8zvRW7DAS_xp6OmD4MuE-43" value="拿取一个人员" style="whiteSpace=wrap;html=1;rounded=0;" vertex="1" parent="WIyWlLk6GJQsqaUBKTNV-1">
          <mxGeometry x="350" y="1060" width="120" height="60" as="geometry" />
        </mxCell>
        <mxCell id="8zvRW7DAS_xp6OmD4MuE-50" value="" style="edgeStyle=orthogonalEdgeStyle;rounded=0;orthogonalLoop=1;jettySize=auto;html=1;" edge="1" parent="WIyWlLk6GJQsqaUBKTNV-1" source="8zvRW7DAS_xp6OmD4MuE-47" target="8zvRW7DAS_xp6OmD4MuE-49">
          <mxGeometry relative="1" as="geometry" />
        </mxCell>
        <mxCell id="8zvRW7DAS_xp6OmD4MuE-47" value="去redis中根据人员id查询缓存" style="whiteSpace=wrap;html=1;rounded=0;" vertex="1" parent="WIyWlLk6GJQsqaUBKTNV-1">
          <mxGeometry x="350" y="1310" width="120" height="60" as="geometry" />
        </mxCell>
        <mxCell id="8zvRW7DAS_xp6OmD4MuE-52" value="" style="edgeStyle=orthogonalEdgeStyle;rounded=0;orthogonalLoop=1;jettySize=auto;html=1;exitX=0.5;exitY=1;exitDx=0;exitDy=0;" edge="1" parent="WIyWlLk6GJQsqaUBKTNV-1" source="8zvRW7DAS_xp6OmD4MuE-49" target="8zvRW7DAS_xp6OmD4MuE-51">
          <mxGeometry relative="1" as="geometry" />
        </mxCell>
        <mxCell id="8zvRW7DAS_xp6OmD4MuE-53" value="y" style="edgeLabel;html=1;align=center;verticalAlign=middle;resizable=0;points=[];" vertex="1" connectable="0" parent="8zvRW7DAS_xp6OmD4MuE-52">
          <mxGeometry x="0.0304" y="1" relative="1" as="geometry">
            <mxPoint as="offset" />
          </mxGeometry>
        </mxCell>
        <mxCell id="8zvRW7DAS_xp6OmD4MuE-55" value="" style="edgeStyle=orthogonalEdgeStyle;rounded=0;orthogonalLoop=1;jettySize=auto;html=1;" edge="1" parent="WIyWlLk6GJQsqaUBKTNV-1" source="8zvRW7DAS_xp6OmD4MuE-49" target="8zvRW7DAS_xp6OmD4MuE-54">
          <mxGeometry relative="1" as="geometry" />
        </mxCell>
        <mxCell id="8zvRW7DAS_xp6OmD4MuE-56" value="n" style="edgeLabel;html=1;align=center;verticalAlign=middle;resizable=0;points=[];" vertex="1" connectable="0" parent="8zvRW7DAS_xp6OmD4MuE-55">
          <mxGeometry x="0.0336" y="-2" relative="1" as="geometry">
            <mxPoint as="offset" />
          </mxGeometry>
        </mxCell>
        <mxCell id="8zvRW7DAS_xp6OmD4MuE-49" value="缓存存在" style="rhombus;whiteSpace=wrap;html=1;rounded=0;" vertex="1" parent="WIyWlLk6GJQsqaUBKTNV-1">
          <mxGeometry x="305" y="1440" width="210" height="80" as="geometry" />
        </mxCell>
        <mxCell id="8zvRW7DAS_xp6OmD4MuE-67" style="edgeStyle=orthogonalEdgeStyle;rounded=0;orthogonalLoop=1;jettySize=auto;html=1;exitX=0.5;exitY=1;exitDx=0;exitDy=0;" edge="1" parent="WIyWlLk6GJQsqaUBKTNV-1" source="8zvRW7DAS_xp6OmD4MuE-51">
          <mxGeometry relative="1" as="geometry">
            <mxPoint x="410" y="1000" as="targetPoint" />
            <Array as="points">
              <mxPoint x="410" y="1710" />
              <mxPoint x="810" y="1710" />
              <mxPoint x="810" y="1000" />
              <mxPoint x="410" y="1000" />
            </Array>
          </mxGeometry>
        </mxCell>
        <mxCell id="8zvRW7DAS_xp6OmD4MuE-51" value="根据缓存中存储的人员类型，进行计数" style="whiteSpace=wrap;html=1;rounded=0;" vertex="1" parent="WIyWlLk6GJQsqaUBKTNV-1">
          <mxGeometry x="350" y="1629.94" width="120" height="60" as="geometry" />
        </mxCell>
        <mxCell id="8zvRW7DAS_xp6OmD4MuE-58" value="" style="edgeStyle=orthogonalEdgeStyle;rounded=0;orthogonalLoop=1;jettySize=auto;html=1;" edge="1" parent="WIyWlLk6GJQsqaUBKTNV-1" source="8zvRW7DAS_xp6OmD4MuE-54" target="8zvRW7DAS_xp6OmD4MuE-57">
          <mxGeometry relative="1" as="geometry" />
        </mxCell>
        <mxCell id="8zvRW7DAS_xp6OmD4MuE-54" value="查询所有包保责任制的数据，与当前人员做比较，得出人员的类型" style="whiteSpace=wrap;html=1;rounded=0;" vertex="1" parent="WIyWlLk6GJQsqaUBKTNV-1">
          <mxGeometry x="630" y="1450" width="120" height="60" as="geometry" />
        </mxCell>
        <mxCell id="8zvRW7DAS_xp6OmD4MuE-60" value="" style="edgeStyle=orthogonalEdgeStyle;rounded=0;orthogonalLoop=1;jettySize=auto;html=1;" edge="1" parent="WIyWlLk6GJQsqaUBKTNV-1" source="8zvRW7DAS_xp6OmD4MuE-57" target="8zvRW7DAS_xp6OmD4MuE-59">
          <mxGeometry relative="1" as="geometry" />
        </mxCell>
        <mxCell id="8zvRW7DAS_xp6OmD4MuE-57" value="将人员信息写入缓存，1小时有效期" style="whiteSpace=wrap;html=1;rounded=0;" vertex="1" parent="WIyWlLk6GJQsqaUBKTNV-1">
          <mxGeometry x="630" y="1540" width="120" height="60" as="geometry" />
        </mxCell>
        <mxCell id="8zvRW7DAS_xp6OmD4MuE-69" style="edgeStyle=orthogonalEdgeStyle;rounded=0;orthogonalLoop=1;jettySize=auto;html=1;exitX=1;exitY=0.5;exitDx=0;exitDy=0;" edge="1" parent="WIyWlLk6GJQsqaUBKTNV-1" source="8zvRW7DAS_xp6OmD4MuE-59">
          <mxGeometry relative="1" as="geometry">
            <mxPoint x="410" y="1020" as="targetPoint" />
            <Array as="points">
              <mxPoint x="780" y="1660" />
              <mxPoint x="780" y="1020" />
            </Array>
          </mxGeometry>
        </mxCell>
        <mxCell id="8zvRW7DAS_xp6OmD4MuE-59" value="根据人员的类型计数" style="whiteSpace=wrap;html=1;rounded=0;" vertex="1" parent="WIyWlLk6GJQsqaUBKTNV-1">
          <mxGeometry x="630" y="1629.94" width="120" height="60" as="geometry" />
        </mxCell>
        <mxCell id="8zvRW7DAS_xp6OmD4MuE-65" style="edgeStyle=orthogonalEdgeStyle;rounded=0;orthogonalLoop=1;jettySize=auto;html=1;exitX=0.5;exitY=1;exitDx=0;exitDy=0;entryX=0.5;entryY=0;entryDx=0;entryDy=0;" edge="1" parent="WIyWlLk6GJQsqaUBKTNV-1" source="8zvRW7DAS_xp6OmD4MuE-63" target="8zvRW7DAS_xp6OmD4MuE-47">
          <mxGeometry relative="1" as="geometry">
            <mxPoint x="530" y="1359.94" as="sourcePoint" />
          </mxGeometry>
        </mxCell>
        <mxCell id="8zvRW7DAS_xp6OmD4MuE-68" value="n" style="edgeLabel;html=1;align=center;verticalAlign=middle;resizable=0;points=[];" vertex="1" connectable="0" parent="8zvRW7DAS_xp6OmD4MuE-65">
          <mxGeometry x="-0.0295" y="2" relative="1" as="geometry">
            <mxPoint x="-2" as="offset" />
          </mxGeometry>
        </mxCell>
        <mxCell id="8zvRW7DAS_xp6OmD4MuE-73" value="" style="edgeStyle=orthogonalEdgeStyle;rounded=0;orthogonalLoop=1;jettySize=auto;html=1;" edge="1" parent="WIyWlLk6GJQsqaUBKTNV-1" source="8zvRW7DAS_xp6OmD4MuE-63" target="8zvRW7DAS_xp6OmD4MuE-72">
          <mxGeometry relative="1" as="geometry" />
        </mxCell>
        <mxCell id="8zvRW7DAS_xp6OmD4MuE-63" value="判断人员是否为空" style="rhombus;whiteSpace=wrap;html=1;rounded=0;" vertex="1" parent="WIyWlLk6GJQsqaUBKTNV-1">
          <mxGeometry x="340" y="1169" width="140" height="80" as="geometry" />
        </mxCell>
        <mxCell id="8zvRW7DAS_xp6OmD4MuE-75" value="" style="edgeStyle=orthogonalEdgeStyle;rounded=0;orthogonalLoop=1;jettySize=auto;html=1;" edge="1" parent="WIyWlLk6GJQsqaUBKTNV-1" source="8zvRW7DAS_xp6OmD4MuE-72" target="8zvRW7DAS_xp6OmD4MuE-74">
          <mxGeometry relative="1" as="geometry" />
        </mxCell>
        <mxCell id="8zvRW7DAS_xp6OmD4MuE-76" value="y" style="edgeLabel;html=1;align=center;verticalAlign=middle;resizable=0;points=[];" vertex="1" connectable="0" parent="8zvRW7DAS_xp6OmD4MuE-75">
          <mxGeometry x="-0.1339" y="-1" relative="1" as="geometry">
            <mxPoint as="offset" />
          </mxGeometry>
        </mxCell>
        <mxCell id="8zvRW7DAS_xp6OmD4MuE-80" value="" style="edgeStyle=orthogonalEdgeStyle;rounded=0;orthogonalLoop=1;jettySize=auto;html=1;" edge="1" parent="WIyWlLk6GJQsqaUBKTNV-1" source="8zvRW7DAS_xp6OmD4MuE-72" target="8zvRW7DAS_xp6OmD4MuE-79">
          <mxGeometry relative="1" as="geometry" />
        </mxCell>
        <mxCell id="8zvRW7DAS_xp6OmD4MuE-81" value="n" style="edgeLabel;html=1;align=center;verticalAlign=middle;resizable=0;points=[];" vertex="1" connectable="0" parent="8zvRW7DAS_xp6OmD4MuE-80">
          <mxGeometry x="-0.0882" y="-1" relative="1" as="geometry">
            <mxPoint as="offset" />
          </mxGeometry>
        </mxCell>
        <mxCell id="8zvRW7DAS_xp6OmD4MuE-72" value="判断类型计数是否有三大责任人类型的计数是否刚好等于人员总数" style="rhombus;whiteSpace=wrap;html=1;rounded=0;" vertex="1" parent="WIyWlLk6GJQsqaUBKTNV-1">
          <mxGeometry x="40" y="1153.5" width="190" height="111" as="geometry" />
        </mxCell>
        <mxCell id="8zvRW7DAS_xp6OmD4MuE-78" value="" style="edgeStyle=orthogonalEdgeStyle;rounded=0;orthogonalLoop=1;jettySize=auto;html=1;" edge="1" parent="WIyWlLk6GJQsqaUBKTNV-1" source="8zvRW7DAS_xp6OmD4MuE-74" target="8zvRW7DAS_xp6OmD4MuE-77">
          <mxGeometry relative="1" as="geometry" />
        </mxCell>
        <mxCell id="8zvRW7DAS_xp6OmD4MuE-74" value="任务为责任人任务" style="whiteSpace=wrap;html=1;rounded=0;" vertex="1" parent="WIyWlLk6GJQsqaUBKTNV-1">
          <mxGeometry x="-195" y="1179" width="120" height="60" as="geometry" />
        </mxCell>
        <mxCell id="8zvRW7DAS_xp6OmD4MuE-77" value="数据流向包保责任任务清单" style="whiteSpace=wrap;html=1;rounded=0;" vertex="1" parent="WIyWlLk6GJQsqaUBKTNV-1">
          <mxGeometry x="-195" y="1319" width="120" height="60" as="geometry" />
        </mxCell>
        <mxCell id="8zvRW7DAS_xp6OmD4MuE-83" value="" style="edgeStyle=orthogonalEdgeStyle;rounded=0;orthogonalLoop=1;jettySize=auto;html=1;" edge="1" parent="WIyWlLk6GJQsqaUBKTNV-1" source="8zvRW7DAS_xp6OmD4MuE-79" target="8zvRW7DAS_xp6OmD4MuE-82">
          <mxGeometry relative="1" as="geometry" />
        </mxCell>
        <mxCell id="8zvRW7DAS_xp6OmD4MuE-79" value="普通任务" style="whiteSpace=wrap;html=1;rounded=0;" vertex="1" parent="WIyWlLk6GJQsqaUBKTNV-1">
          <mxGeometry x="75" y="1370" width="120" height="60" as="geometry" />
        </mxCell>
        <mxCell id="8zvRW7DAS_xp6OmD4MuE-82" value="数据流向普通任务" style="whiteSpace=wrap;html=1;rounded=0;" vertex="1" parent="WIyWlLk6GJQsqaUBKTNV-1">
          <mxGeometry x="75" y="1510" width="120" height="60" as="geometry" />
        </mxCell>
        <mxCell id="8zvRW7DAS_xp6OmD4MuE-86" value="" style="edgeStyle=orthogonalEdgeStyle;rounded=0;orthogonalLoop=1;jettySize=auto;html=1;" edge="1" parent="WIyWlLk6GJQsqaUBKTNV-1" source="8zvRW7DAS_xp6OmD4MuE-84" target="8zvRW7DAS_xp6OmD4MuE-85">
          <mxGeometry relative="1" as="geometry" />
        </mxCell>
        <mxCell id="8zvRW7DAS_xp6OmD4MuE-84" value="开始" style="ellipse;whiteSpace=wrap;html=1;" vertex="1" parent="WIyWlLk6GJQsqaUBKTNV-1">
          <mxGeometry x="910" y="1264.5" width="120" height="80" as="geometry" />
        </mxCell>
        <mxCell id="8zvRW7DAS_xp6OmD4MuE-88" value="" style="edgeStyle=orthogonalEdgeStyle;rounded=0;orthogonalLoop=1;jettySize=auto;html=1;" edge="1" parent="WIyWlLk6GJQsqaUBKTNV-1" source="8zvRW7DAS_xp6OmD4MuE-85" target="8zvRW7DAS_xp6OmD4MuE-87">
          <mxGeometry relative="1" as="geometry" />
        </mxCell>
        <mxCell id="8zvRW7DAS_xp6OmD4MuE-85" value="修改包保责任制的人员信息" style="whiteSpace=wrap;html=1;" vertex="1" parent="WIyWlLk6GJQsqaUBKTNV-1">
          <mxGeometry x="910" y="1434.5" width="120" height="60" as="geometry" />
        </mxCell>
        <mxCell id="8zvRW7DAS_xp6OmD4MuE-90" value="" style="edgeStyle=orthogonalEdgeStyle;rounded=0;orthogonalLoop=1;jettySize=auto;html=1;" edge="1" parent="WIyWlLk6GJQsqaUBKTNV-1" source="8zvRW7DAS_xp6OmD4MuE-87" target="8zvRW7DAS_xp6OmD4MuE-89">
          <mxGeometry relative="1" as="geometry" />
        </mxCell>
        <mxCell id="8zvRW7DAS_xp6OmD4MuE-87" value="清空redis中关于人员类型的缓存记录" style="whiteSpace=wrap;html=1;" vertex="1" parent="WIyWlLk6GJQsqaUBKTNV-1">
          <mxGeometry x="910" y="1574.5" width="120" height="60" as="geometry" />
        </mxCell>
        <mxCell id="8zvRW7DAS_xp6OmD4MuE-92" value="" style="edgeStyle=orthogonalEdgeStyle;rounded=0;orthogonalLoop=1;jettySize=auto;html=1;" edge="1" parent="WIyWlLk6GJQsqaUBKTNV-1" source="8zvRW7DAS_xp6OmD4MuE-89" target="8zvRW7DAS_xp6OmD4MuE-91">
          <mxGeometry relative="1" as="geometry" />
        </mxCell>
        <mxCell id="8zvRW7DAS_xp6OmD4MuE-89" value="修改数据库" style="whiteSpace=wrap;html=1;" vertex="1" parent="WIyWlLk6GJQsqaUBKTNV-1">
          <mxGeometry x="910" y="1714.5" width="120" height="60" as="geometry" />
        </mxCell>
        <mxCell id="8zvRW7DAS_xp6OmD4MuE-91" value="结束" style="ellipse;whiteSpace=wrap;html=1;" vertex="1" parent="WIyWlLk6GJQsqaUBKTNV-1">
          <mxGeometry x="930" y="1844.5" width="80" height="80" as="geometry" />
        </mxCell>
      </root>
    </mxGraphModel>
  </diagram>
</mxfile>
